REM DIRINDEX 1\3,1\4,1\5,1\6,1\2\7,1\2\8,1\2\9,1\10
REM DIRNAME cjc056,folder01,folder02,folder03,folder04,folder05,folder06,folder07,folder08,folder09
TITLE ""
FILE "1-36 Level 2-313-325.mp3" MP3
  TRACK 01 AUDIO
    TITLE "0:"
    INDEX 01 00:00:00
  TRACK 02 AUDIO
    TITLE "7:cjc056_1066"
    INDEX 01 00:00:13
  TRACK 03 AUDIO
    TITLE "0:"
    INDEX 01 00:01:09
  TRACK 04 AUDIO
    TITLE "8:cjc056_1067"
    INDEX 01 00:01:21
  TRACK 05 AUDIO
    TITLE "0:"
    INDEX 01 00:02:69
  TRACK 06 AUDIO
    TITLE "9:cjc056_1068"
    INDEX 01 00:03:15
  TRACK 07 AUDIO
    TITLE "0:"
    INDEX 01 00:04:54
  TRACK 08 AUDIO
    TITLE "7:cjc056_1069"
    INDEX 01 00:05:32
  TRACK 09 AUDIO
    TITLE "0:"
    INDEX 01 00:06:43
  TRACK 10 AUDIO
    TITLE "8:cjc056_1070"
    INDEX 01 00:06:57
  TRACK 11 AUDIO
    TITLE "0:"
    INDEX 01 00:08:05
  TRACK 12 AUDIO
    TITLE "9:cjc056_1071"
    INDEX 01 00:08:17
  TRACK 13 AUDIO
    TITLE "0:"
    INDEX 01 00:10:23
  TRACK 14 AUDIO
    TITLE "7:cjc056_1072"
    INDEX 01 00:10:74
  TRACK 15 AUDIO
    TITLE "0:"
    INDEX 01 00:12:03
  TRACK 16 AUDIO
    TITLE "8:cjc056_1073"
    INDEX 01 00:12:16
  TRACK 17 AUDIO
    TITLE "0:"
    INDEX 01 00:13:37
  TRACK 18 AUDIO
    TITLE "9:cjc056_1074"
    INDEX 01 00:13:49
  TRACK 19 AUDIO
    TITLE "0:"
    INDEX 01 00:15:72
  TRACK 20 AUDIO
    TITLE "7:cjc056_1075"
    INDEX 01 00:16:49
  TRACK 21 AUDIO
    TITLE "0:"
    INDEX 01 00:17:47
  TRACK 22 AUDIO
    TITLE "8:cjc056_1076"
    INDEX 01 00:17:59
  TRACK 23 AUDIO
    TITLE "0:"
    INDEX 01 00:19:07
  TRACK 24 AUDIO
    TITLE "9:cjc056_1077"
    INDEX 01 00:19:20
  TRACK 25 AUDIO
    TITLE "0:"
    INDEX 01 00:20:57
  TRACK 26 AUDIO
    TITLE "7:cjc056_1078"
    INDEX 01 00:21:31
  TRACK 27 AUDIO
    TITLE "0:"
    INDEX 01 00:22:42
  TRACK 28 AUDIO
    TITLE "8:cjc056_1079"
    INDEX 01 00:22:56
  TRACK 29 AUDIO
    TITLE "0:"
    INDEX 01 00:24:27
  TRACK 30 AUDIO
    TITLE "9:cjc056_1080"
    INDEX 01 00:24:39
  TRACK 31 AUDIO
    TITLE "0:"
    INDEX 01 00:26:20
  TRACK 32 AUDIO
    TITLE "7:cjc056_1081"
    INDEX 01 00:27:00
  TRACK 33 AUDIO
    TITLE "0:"
    INDEX 01 00:27:65
  TRACK 34 AUDIO
    TITLE "8:cjc056_1082"
    INDEX 01 00:27:73
  TRACK 35 AUDIO
    TITLE "0:"
    INDEX 01 00:28:72
  TRACK 36 AUDIO
    TITLE "9:cjc056_1083"
    INDEX 01 00:29:17
  TRACK 37 AUDIO
    TITLE "0:"
    INDEX 01 00:30:67
  TRACK 38 AUDIO
    TITLE "7:cjc056_1084"
    INDEX 01 00:31:45
  TRACK 39 AUDIO
    TITLE "0:"
    INDEX 01 00:32:45
  TRACK 40 AUDIO
    TITLE "8:cjc056_1085"
    INDEX 01 00:32:56
  TRACK 41 AUDIO
    TITLE "0:"
    INDEX 01 00:34:20
  TRACK 42 AUDIO
    TITLE "9:cjc056_1086"
    INDEX 01 00:34:32
  TRACK 43 AUDIO
    TITLE "0:"
    INDEX 01 00:35:74
  TRACK 44 AUDIO
    TITLE "7:cjc056_1087"
    INDEX 01 00:36:50
  TRACK 45 AUDIO
    TITLE "0:"
    INDEX 01 00:37:34
  TRACK 46 AUDIO
    TITLE "8:cjc056_1088"
    INDEX 01 00:37:57
  TRACK 47 AUDIO
    TITLE "0:"
    INDEX 01 00:38:49
  TRACK 48 AUDIO
    TITLE "9:cjc056_1089"
    INDEX 01 00:38:63
  TRACK 49 AUDIO
    TITLE "0:"
    INDEX 01 00:40:42
  TRACK 50 AUDIO
    TITLE "7:cjc056_1090"
    INDEX 01 00:41:22
  TRACK 51 AUDIO
    TITLE "0:"
    INDEX 01 00:42:21
  TRACK 52 AUDIO
    TITLE "8:cjc056_1091"
    INDEX 01 00:42:35
  TRACK 53 AUDIO
    TITLE "0:"
    INDEX 01 00:43:46
  TRACK 54 AUDIO
    TITLE "9:cjc056_1092"
    INDEX 01 00:43:60
  TRACK 55 AUDIO
    TITLE "0:"
    INDEX 01 00:45:35
  TRACK 56 AUDIO
    TITLE "7:cjc056_1093"
    INDEX 01 00:46:11
  TRACK 57 AUDIO
    TITLE "0:"
    INDEX 01 00:47:05
  TRACK 58 AUDIO
    TITLE "8:cjc056_1094"
    INDEX 01 00:47:17
  TRACK 59 AUDIO
    TITLE "0:"
    INDEX 01 00:48:22
  TRACK 60 AUDIO
    TITLE "9:cjc056_1095"
    INDEX 01 00:48:38
  TRACK 61 AUDIO
    TITLE "0:"
    INDEX 01 00:50:19
  TRACK 62 AUDIO
    TITLE "7:cjc056_1096"
    INDEX 01 00:50:70
  TRACK 63 AUDIO
    TITLE "0:"
    INDEX 01 00:51:71
  TRACK 64 AUDIO
    TITLE "8:cjc056_1097"
    INDEX 01 00:52:12
  TRACK 65 AUDIO
    TITLE "0:"
    INDEX 01 00:53:33
  TRACK 66 AUDIO
    TITLE "9:cjc056_1098"
    INDEX 01 00:53:47
  TRACK 67 AUDIO
    TITLE "0:"
    INDEX 01 00:55:12
  TRACK 68 AUDIO
    TITLE "7:cjc056_1099"
    INDEX 01 00:55:65
  TRACK 69 AUDIO
    TITLE "0:"
    INDEX 01 00:56:65
  TRACK 70 AUDIO
    TITLE "8:cjc056_1100"
    INDEX 01 00:57:05
  TRACK 71 AUDIO
    TITLE "0:"
    INDEX 01 00:58:30
  TRACK 72 AUDIO
    TITLE "9:cjc056_1101"
    INDEX 01 00:58:44
  TRACK 73 AUDIO
    TITLE "0:"
    INDEX 01 01:00:00
  TRACK 74 AUDIO
    TITLE "7:cjc056_1102"
    INDEX 01 01:00:49
  TRACK 75 AUDIO
    TITLE "0:"
    INDEX 01 01:01:46
  TRACK 76 AUDIO
    TITLE "8:cjc056_1103"
    INDEX 01 01:01:60
  TRACK 77 AUDIO
    TITLE "0:"
    INDEX 01 01:03:49
  TRACK 78 AUDIO
    TITLE "9:cjc056_1104"
    INDEX 01 01:03:63
  TRACK 79 AUDIO
    TITLE "0:"
    INDEX 01 01:05:26
